Coordinates
version=1
nRows=19
nColumns=36
inDegrees=yes

Units are S.I. units (second, meters, Newtons, ...)
If the header above contains a line with 'inDegrees', this indicates whether rotational values are in degrees (yes) or radians (no).

endheader
time	pelvis_tilt	pelvis_list	pelvis_rotation	pelvis_tx	pelvis_ty	pelvis_tz	hip_flexion_r	hip_adduction_r	hip_rotation_r	knee_angle_r	knee_angle_r_beta	ankle_angle_r	subtalar_angle_r	mtp_angle_r	hip_flexion_l	hip_adduction_l	hip_rotation_l	knee_angle_l	knee_angle_l_beta	ankle_angle_l	subtalar_angle_l	mtp_angle_l	lumbar_extension	lumbar_bending	lumbar_rotation	arm_flex_r	arm_add_r	arm_rot_r	elbow_flex_r	pro_sup_r	arm_flex_l	arm_add_l	arm_rot_l	elbow_flex_l	pro_sup_l
      0.98333330	     -1.14949881	     -1.42736628	     15.43084105	      0.60885340	      0.90702484	     -0.02924211	     35.47296032	     -0.42508681	      0.81923069	     11.05763550	      0.19299215	      2.33718023	      1.62252280	     -7.49999154	      4.16562039	      4.36177267	     -3.35026251	     17.96380056	      0.31352747	     21.19389702	     -4.57111825	     -7.49999154	      4.11797624	     -6.05627788	      3.67664697	     25.23955686	      3.05099414	     57.10790678	    124.23467755	     94.83722249	     24.13183844	     -3.93930356	     61.68525787	    128.71605359	     94.91343897
      1.00000000	     -1.63495568	     -1.44460441	     15.53468594	      0.60947133	      0.90417257	     -0.02907553	     35.76066809	     -0.59538283	      0.69070386	     10.83934578	      0.18918227	      2.26967504	      1.84678310	     -7.49999210	      4.84736015	      4.46394881	     -3.28866590	     18.23167885	      0.31820282	     21.36206740	     -4.53378746	     -7.49999210	      4.92501830	     -6.24440891	      3.51888992	     25.15514569	      3.29415268	     56.91650871	    123.78721569	     93.98874562	     24.00154525	     -3.91047533	     61.56851242	    128.51352466	     94.06764511
      1.01666670	     -2.23804829	     -1.48234129	     15.63892501	      0.61431192	      0.90356495	     -0.03219621	     36.12257956	     -0.83550160	      0.24947968	     10.70339862	      0.18680955	      2.62902586	      2.50927185	     -7.49999237	      5.51031222	      4.52559669	     -3.32161492	     18.44509083	      0.32192757	     21.71064983	     -4.05008861	     -7.49999237	      5.91040358	     -6.42175222	      3.47505430	     24.72374066	      3.43063645	     56.87911652	    124.11704941	     95.00744253	     23.58044212	     -3.83527832	     61.51891714	    128.58155476	     95.09852593
      1.03333330	     -2.58126115	     -1.55241667	     15.68388857	      0.61506698	      0.90290914	     -0.03214376	     36.18686109	     -0.92034292	     -0.04686332	     10.81012855	      0.18867234	      2.82913836	      2.75126722	     -7.49999426	      5.87542704	      4.51646204	     -3.25418182	     18.56264119	      0.32397921	     21.95584057	     -3.83085221	     -7.49999426	      6.64378635	     -6.50893523	      3.50395112	     24.21760755	      3.71686483	     56.63491669	    124.06904134	    100.32197704	     23.16594712	     -3.73554317	     61.19533966	    128.54201250	    100.51929046
      1.05000000	     -3.02484669	     -1.64917075	     15.76191390	      0.61602834	      0.90176005	     -0.03240294	     36.45725579	     -1.02628380	     -0.33046889	     10.85840416	      0.18951490	      2.84175864	      2.90119674	     -7.49999590	      6.32257059	      4.51322497	     -3.29169763	     18.69715387	      0.32632690	     22.09548675	     -3.59037149	     -7.49999590	      7.56931225	     -6.60764141	      3.35219679	     23.68590150	      3.84597124	     56.74959894	    123.81268410	    100.08190722	     22.60694540	     -3.89663365	     61.01025399	    128.49337097	    100.74937606
      1.06666670	     -3.53382880	     -1.72320459	     15.85757189	      0.61675332	      0.90087955	     -0.03256255	     36.66143449	     -1.16513896	     -0.58900664	     10.75557424	      0.18772018	      2.88170770	      3.02791236	     -7.49999628	      6.79229885	      4.59384950	     -3.15470228	     18.70907445	      0.32653495	     22.15464907	     -3.48543327	     -7.49999628	      8.53144715	     -6.73969391	      3.32607953	     23.20991042	      3.90065081	     56.96851025	    123.69016122	     98.63801088	     22.05206372	     -4.09886930	     60.91281053	    128.34716525	     99.31326895
      1.08333330	     -4.11041815	     -1.75913181	     15.89972853	      0.61782382	      0.89765019	     -0.03294532	     37.01500859	     -1.33718939	     -0.78307943	     10.58793720	      0.18479437	      2.78116485	      3.24975858	     -7.49999665	      7.40426840	      4.71872277	     -3.11602541	     18.76398847	      0.32749338	     22.25733439	     -3.36191285	     -7.49999665	      9.67051201	     -6.99733377	      3.47878664	     22.85890885	      3.85755390	     57.10018820	    123.49281948	     96.32657672	     21.66561945	     -4.27131629	     61.07040368	    128.10207125	     96.86336384
      1.10000000	     -4.50886299	     -1.94665184	     15.96519616	      0.61814315	      0.89707423	     -0.03309431	     37.18534454	     -1.32361719	     -1.03398364	     10.50776232	      0.18339505	      2.87127002	      3.25230760	     -7.49999696	      8.02081025	      4.66591223	     -2.94349093	     19.18579896	      0.33485536	     22.51646324	     -3.38250775	     -7.49999696	     10.48215835	     -6.93295199	      3.39532146	     22.59214928	      3.85452005	     57.18060899	    123.18382310	     94.74118947	     21.22102459	     -4.61984452	     60.84406965	    127.69445797	     95.23208265
      1.11666670	     -4.52700040	     -1.95780129	     15.86843497	      0.62267915	      0.89724185	     -0.03605827	     36.76171124	     -1.26173614	     -1.10001192	     10.17231204	      0.17754034	      2.99627041	      3.18774577	     -7.49999699	      7.98139191	      4.62097793	     -3.14321007	     19.33631985	      0.33748245	     22.57500669	     -3.19885751	     -7.49999699	     10.65333012	     -6.99543362	      3.58119446	     22.26998711	      3.57712443	     57.54956157	    123.82167505	     95.08460977	     20.72146866	     -4.95755943	     60.62425972	    127.61004560	     95.48094827
      1.13333330	     -4.69432683	     -1.90596099	     15.86681620	      0.62303527	      0.89663062	     -0.03586613	     36.40498095	     -1.34622605	     -1.24615706	      9.80695384	      0.17116363	      2.97089238	      3.09929142	     -7.49999767	      8.09925533	      4.69951963	     -3.29866977	     19.60970057	      0.34225384	     22.66159232	     -2.86926272	     -7.49999767	     11.00783628	     -7.19145631	      3.40268956	     22.15233357	      3.60261665	     57.50886796	    123.49294755	    100.18138494	     20.27378339	     -5.19569980	     59.79023760	    127.38097877	     99.64248488
      1.15000000	     -5.13763375	     -1.90328799	     15.88243817	      0.62352502	      0.89322884	     -0.03581697	     36.44621702	     -1.47847489	     -1.41806998	      9.54770736	      0.16663893	      3.03739344	      3.22246454	     -7.49999784	      8.57081086	      4.85436164	     -3.24574718	     19.96444631	      0.34844532	     22.77974967	     -2.87422067	     -7.49999784	     11.83654501	     -7.44285838	      3.42690588	     22.11627835	      3.53086125	     57.23423763	    123.03785371	     98.29583228	     20.15099461	     -5.44664784	     59.42502330	    126.72303961	     97.79451109
      1.16666670	     -5.11721216	     -1.93417169	     15.87618610	      0.62399907	      0.89078794	     -0.03595111	     36.08341886	     -1.41788681	     -1.50220562	      9.49539113	      0.16572584	      2.86910946	      2.92857941	     -7.49999827	      8.96323093	      4.72880629	     -3.72513442	     21.01317009	      0.36674900	     22.96191588	     -2.64296188	     -7.49999827	     11.87482061	     -7.42499051	      3.43191026	     22.15492758	      3.55842861	     56.68144159	    123.17170170	     99.55148289	     19.87699707	     -5.33294320	     58.15386474	    126.56693346	     99.16040814
      1.18333330	     -5.33146035	     -2.00414319	     15.86742300	      0.62460453	      0.88990968	     -0.03625087	     36.05993223	     -1.38713143	     -1.61963949	      9.62746161	      0.16803090	      2.78504357	      2.80223401	     -7.49999840	      9.70921161	      4.71641055	     -3.91513411	     22.18399808	      0.38718381	     23.13943052	     -3.02156889	     -7.49999840	     12.34461102	     -7.38501950	      3.72854435	     22.14640823	      3.46902438	     56.42312654	    122.91300072	     97.90794947	     19.60050185	     -5.07488408	     58.00501674	    126.48465942	     97.57314280
      1.20000000	     -5.51765522	     -2.08578930	     15.86593919	      0.62469984	      0.88726564	     -0.03613259	     36.02772611	     -1.38304515	     -1.69226465	      9.77767154	      0.17065256	      2.69767459	      2.61430253	     -7.49999852	     10.44444177	      4.68618403	     -4.01795386	     23.28371370	      0.40637747	     23.49603652	     -3.17295908	     -7.49999852	     12.72232843	     -7.35229896	      3.94691109	     22.07565511	      3.48831074	     56.33457203	    122.93928617	     96.49009387	     19.53167352	     -4.95801862	     57.55179927	    126.25449402	     96.19130085
      1.21666670	     -5.66131733	     -2.13551534	     15.86560862	      0.62488481	      0.88893388	     -0.03609534	     36.01491585	     -1.37795864	     -1.66166909	      9.88441654	      0.17251561	      2.64056390	      2.32211575	     -7.49999861	     11.03342206	      4.69116780	     -4.16617199	     24.17333138	      0.42190422	     23.64258111	     -3.18757331	     -7.49999861	     12.92687968	     -7.38332579	      4.10748565	     22.11056886	      3.40464767	     56.29747184	    122.73462261	     95.86444975	     19.36425947	     -5.02757893	     57.12232534	    125.96728975	     95.58809781
      1.23333330	     -5.66484418	     -2.05893401	     15.87096947	      0.62917432	      0.88735320	     -0.03932141	     35.74617561	     -1.45738280	     -1.68829026	      9.62409141	      0.16797208	      2.79305674	      2.24469383	     -7.49999861	     11.12269974	      4.80679591	     -4.22801957	     24.58008696	      0.42900345	     23.63257766	     -3.15638281	     -7.49999861	     13.08367651	     -7.46337927	      4.21427700	     21.98372508	      3.40361101	     56.39230893	    122.72832726	     95.92151189	     19.20147222	     -4.99384513	     57.12980505	    125.96811426	     95.65222122
      1.25000000	     -5.89240915	     -2.25457209	     15.89947307	      0.62936034	      0.88677805	     -0.03953753	     35.72747850	     -1.37909634	     -1.75465137	      9.17969254	      0.16021586	      2.77555371	      2.08157044	     -7.49999887	     11.64340346	      4.67668507	     -4.38925313	     25.17246599	      0.43934241	     23.91946688	     -2.72261370	     -7.49999887	     13.65159521	     -7.28072686	      4.39400124	     21.76352548	      3.32439449	     56.46118863	    122.79017178	     99.52496707	     18.60021186	     -4.66279178	     56.66948222	    125.94883304	    100.10648876
      1.26666670	     -5.85498091	     -2.20661102	     15.96241688	      0.62521819	      0.88630696	     -0.03634065	     35.71590682	     -1.47399401	     -1.89267638	      9.26071629	      0.16162999	      2.84487150	      2.11761573	     -7.49999888	     12.10207783	      4.69362998	     -4.52635289	     25.97597408	      0.45336627	     23.90957155	     -2.83875228	     -7.49999888	     13.50385510	     -7.40404295	      4.62839824	     22.02140223	      3.36578369	     56.46627521	    122.75842553	     99.51341603	     18.66837280	     -4.59011398	     56.59983663	    126.18889816	    100.12658696
      1.28333330	     -6.03544789	     -2.18290449	     15.99653143	      0.62554813	      0.88807192	     -0.03671954	     36.07445626	     -1.60296401	     -1.97121520	      9.48782781	      0.16559383	      3.05189810	      2.16767045	     -7.49999898	     12.52800334	      4.76413161	     -4.56079132	     26.28241636	      0.45871470	     23.86906281	     -2.81498123	     -7.49999898	     13.69917261	     -7.54168535	      4.76686296	     22.31437862	      3.38643708	     56.54624928	    122.76988404	     98.13936264	     18.61138728	     -4.79934470	     56.46392425	    126.64714129	     98.85567474
